Coordinates
version=1
nRows=17
nColumns=34
inDegrees=yes

Units are S.I. units (second, meters, Newtons, ...)
If the header above contains a line with 'inDegrees', this indicates whether rotational values are in degrees (yes) or radians (no).

endheader
time	pelvis_tilt	pelvis_list	pelvis_rotation	pelvis_tx	pelvis_ty	pelvis_tz	hip_flexion_r	hip_adduction_r	hip_rotation_r	knee_angle_r	ankle_angle_r	subtalar_angle_r	mtp_angle_r	hip_flexion_l	hip_adduction_l	hip_rotation_l	knee_angle_l	ankle_angle_l	subtalar_angle_l	mtp_angle_l	lumbar_extension	lumbar_bending	lumbar_rotation	arm_flex_r	arm_add_r	arm_rot_r	elbow_flex_r	pro_sup_r	arm_flex_l	arm_add_l	arm_rot_l	elbow_flex_l	pro_sup_l
      4.81666670	    -13.21630250	      0.69672299	      0.78783257	      0.93228385	      1.04982567	     -0.28995729	     29.93368947	     -9.21887367	     -3.70430351	     22.57690341	      4.65680209	     -5.62852359	      0.00000000	     30.60430924	    -12.00767362	     -9.76496316	     23.18056000	      0.86962658	      9.37495117	      0.00000000	    -26.53824207	     -1.81993345	      3.04841989	     39.64499763	     -9.52012476	     18.97892763	     95.96891929	     90.23695966	     46.72672267	     -9.58640999	     31.79117015	     94.29715582	     71.06148727
      4.83333330	    -12.41109609	      0.80091535	      0.81552220	      0.93725811	      1.05563225	     -0.29070148	     27.05440945	     -9.16467703	     -4.48225498	     19.94391212	      2.82532392	     -5.49061813	      0.00000000	     27.66659405	    -11.51190828	    -10.20744035	     20.63653429	      0.12585854	      9.76672587	      0.00000000	    -24.12342550	     -2.07888493	      2.64740265	     35.54262896	     -8.96084850	     19.54545347	     96.11005121	     90.42964280	     42.88324144	     -9.93988279	     31.56401529	     93.88984128	     70.95638313
      4.85000000	    -11.81131698	      0.99413757	      0.74757150	      0.94050863	      1.05897781	     -0.29112174	     24.90818594	     -9.20167737	     -4.83723611	     17.83047012	      0.89068711	     -5.51008846	      0.00000000	     25.15624553	    -10.88817964	    -10.51068400	     18.04390855	     -0.61470716	      9.62525079	      0.00000000	    -21.77033378	     -2.49256673	      2.51295188	     32.10292856	     -8.75949608	     19.41381666	     95.46759907	     90.49575777	     39.36734776	    -10.50698275	     31.60654890	     94.32899574	     70.82095304
      4.86666670	    -11.40986850	      1.32053673	      0.66134632	      0.95316418	      1.06274714	     -0.29202307	     23.01963196	     -9.41682060	     -5.67900597	     15.87839957	     -0.83697306	     -5.31839092	      0.00000000	     22.90287567	    -10.23990377	    -10.42713858	     15.75315207	     -1.11627541	      9.80764058	      0.00000000	    -19.24889350	     -3.03251590	      2.44299340	     29.06482945	     -8.83357267	     19.86044447	     95.39375347	     90.52685178	     36.38506774	    -11.06440455	     32.21005258	     94.75191337	     70.77240055
      4.88333330	    -10.63091410	      1.39902088	      0.98275044	      0.96624595	      1.06246552	     -0.29173629	     20.60033619	     -9.54814157	     -5.80762763	     14.24133779	     -1.59305868	     -5.32026944	      0.00000000	     20.48219685	     -9.75005596	     -9.94730503	     13.64332619	     -1.26526484	      9.80229353	      0.00000000	    -17.26838185	     -3.00376922	      1.72833554	     25.88279678	     -8.62564381	     19.72309325	     95.65853281	     90.54034799	     33.36162580	    -11.84611747	     32.20966158	     95.35861096	     70.50500983
      4.90000000	     -9.99171507	      1.41385572	      1.41210562	      0.97780636	      1.07480732	     -0.28978103	     18.21848204	     -9.54850823	     -5.81222627	     12.46525288	     -2.39211087	     -4.83380961	      0.00000000	     18.19069945	     -9.33171160	     -9.73355061	     11.53103031	     -1.58999089	      9.99919624	      0.00000000	    -15.19589504	     -2.90024418	      1.25859683	     22.43258907	     -8.64640035	     19.90512219	     96.10375898	     90.58953891	     29.84383666	    -12.18460586	     31.89007728	     95.51683338	     70.11759528
      4.91666670	     -9.27539799	      1.23803618	      1.56410718	      0.98483783	      1.07324563	     -0.28955219	     16.37892328	     -9.22015009	     -6.07301362	     11.51754840	     -3.03148950	     -5.05558331	      0.00000000	     16.19408784	     -9.27794322	     -9.58085231	     10.09908783	     -1.44194820	     10.19498350	      0.00000000	    -13.43012708	     -2.62878984	      1.05271982	     19.44336338	     -8.79731283	     20.30043343	     96.84085301	     90.61751723	     26.27118437	    -12.61706321	     31.86468974	     96.80916154	     69.68160920
      4.93333330	     -8.61389061	      1.09248758	      1.70952211	      0.99366719	      1.07404475	     -0.29240507	     14.80762265	     -8.99335409	     -6.41711913	     10.90593530	     -3.84748941	     -5.50204719	      0.00000000	     14.33176963	     -9.16957562	     -9.50841485	      8.78564330	     -1.39603713	     10.19236239	      0.00000000	    -11.51955843	     -2.17646399	      0.91458501	     16.75799238	     -9.23938392	     20.80377648	     97.44233072	     90.62443709	     23.18563018	    -12.97471354	     32.31596765	     97.96731880	     69.40750866
      4.95000000	     -7.94568854	      0.76067856	      1.93977518	      0.99966464	      1.07088737	     -0.29540974	     13.49032109	     -8.62602108	     -5.91765729	     10.75285561	     -3.37266448	     -6.10813239	      0.00000000	     12.70955963	     -9.24218204	     -9.24178523	      7.84189445	     -0.63711072	      9.97046403	      0.00000000	     -9.87111342	     -1.40441548	      0.66109765	     14.37701102	    -10.13049494	     21.47711827	     98.67920665	     90.61591982	     20.43933594	    -13.25520770	     32.25060948	     98.97264185	     69.06314514
      4.96666670	     -7.16831869	      0.41572693	      2.02067571	      1.00429615	      1.08265114	     -0.29371555	     12.58865803	     -8.07688278	     -6.15774752	     10.99443932	     -2.80097012	     -6.81902479	      0.00000000	     11.11683178	     -9.42804130	     -9.00007434	      7.08179979	     -0.16041570	      9.97204813	      0.00000000	     -8.64036249	     -0.87813561	      0.58431780	     12.07905627	    -10.59424234	     22.07606550	     98.79102548	     90.63801558	     18.06852935	    -13.55406006	     32.72570784	     98.93317540	     69.00205665
      4.98333330	     -6.24124123	      0.20354677	      2.39685931	      1.01983421	      1.07853903	     -0.29362035	     10.63088987	     -7.74067691	     -5.53887658	     10.43472204	     -3.55195467	     -8.18035701	      0.00000000	      9.32380889	     -9.59634383	     -8.88223435	      6.42126103	     -0.08757103	     10.23468048	      0.00000000	     -7.55675095	     -0.60707928	     -0.36533016	     10.10787275	    -11.04412092	     23.44055190	     99.51959747	     90.48315786	     14.56305497	    -13.67975624	     31.15441828	    100.46762517	     67.87378656
      5.00000000	     -5.68105962	      0.05890166	      2.71584094	      1.02639714	      1.07946857	     -0.29642389	      9.35084432	     -7.58718867	     -6.19556580	     10.22511117	     -3.95430571	     -8.45653657	      0.00000000	      7.95129122	     -9.63830924	     -8.57797748	      5.80773237	      0.45605511	     10.61291678	      0.00000000	     -6.10774496	     -0.41083664	     -0.73243658	      7.97024114	    -11.58985022	     24.19654137	    100.43374687	     90.39029283	     11.53140724	    -13.70288532	     30.80556033	    101.28805083	     67.45170070
      5.01666670	     -5.08672809	      0.02271393	      2.90184735	      1.03404142	      1.08181443	     -0.29760026	      8.00035797	     -7.47720498	     -6.41848390	      9.96150369	     -4.14300271	     -8.63678421	      0.00000000	      6.56642012	     -9.58497805	     -8.47696016	      5.31839385	      0.81928800	     10.51595632	      0.00000000	     -4.64901119	     -0.36099470	     -0.67793233	      6.12781713	    -11.92785212	     24.65576639	    100.38125313	     90.38680923	      9.45120985	    -13.89030702	     31.10127375	    101.39770316	     67.39218764
      5.03333330	     -4.53420473	      0.04039614	      2.93951360	      1.03435645	      1.08227113	     -0.29780504	      6.86894554	     -7.43518600	     -6.80178148	      9.55513098	     -4.71978147	     -9.16453642	      0.00000000	      5.40334456	     -9.48610719	     -8.16741184	      4.93391226	      1.22640094	     10.57967352	      0.00000000	     -3.90124559	     -0.24255402	     -1.24403211	      4.82383463	    -12.15702954	     25.05585324	    100.88886963	     90.20014920	      6.89546977	    -13.87712476	     29.51194640	    102.43738464	     66.83926884
      5.05000000	     -4.03365856	      0.04486271	      2.71277346	      1.03862411	      1.07882780	     -0.29801407	      6.17910654	     -7.35063475	     -7.04056336	      9.61348957	     -4.67569273	     -9.35341872	      0.00000000	      4.41502233	     -9.52250962	     -8.00890550	      4.75072622	      1.71652755	     10.48818767	      0.00000000	     -2.92502873	     -0.13238883	     -1.18632946	      3.45323756	    -12.57076355	     25.48879496	    100.81094991	     90.20884183	      5.59064586	    -14.10057982	     29.65423234	    102.47344415	     66.81244447
      5.06666670	     -3.61070654	      0.15770841	      2.68842187	      1.04281551	      1.07662841	     -0.29717911	      5.32879149	     -7.44998030	     -6.80804576	      9.38396169	     -4.51716057	     -9.42722876	      0.00000000	      3.63904028	     -9.45252002	     -7.68404807	      4.66212960	      2.20553145	     10.38089234	      0.00000000	     -1.91094178	     -0.11169807	     -1.26278808	      2.17717301	    -13.05303876	     25.79993944	    100.93782934	     90.20893198	      4.31539609	    -14.31515260	     29.69523442	    102.52585275	     66.77721366
      5.08333330	     -3.22124874	      0.27697637	      2.62077057	      1.04779121	      1.07943509	     -0.30174002	      4.65315204	     -7.59157909	     -6.85821461	      9.21430134	     -4.74035276	     -9.81508613	      0.00000000	      2.89874202	     -9.22303554	     -7.15898903	      4.52110713	      2.54645558	      9.54841751	      0.00000000	     -1.33253074	      0.06773751	     -2.17355595	      1.53406375	    -13.47087214	     26.83665365	    101.48555519	     89.93117645	      1.65049446	    -14.11457051	     27.77197191	    103.58207365	     66.25965623
